<svg xmlns="http://www.w3.org/2000/svg" xmlns:xlink="http://www.w3.org/1999/xlink" width="220" zoomAndPan="magnify" viewBox="0 0 375 374.999991" height="500" preserveAspectRatio="xMidYMid meet" version="1.0"><defs><g/><clipPath id="8db734f224"><path d="M 87 169 L 108 169 L 108 203 L 87 203 Z M 87 169 " clip-rule="nonzero"/></clipPath><clipPath id="74c38d1982"><path d="M 76.542969 188.746094 L 115.941406 156.363281 L 140.707031 186.492188 L 101.308594 218.875 Z M 76.542969 188.746094 " clip-rule="nonzero"/></clipPath><clipPath id="74a7a91f6d"><path d="M 76.542969 188.746094 L 115.941406 156.363281 L 140.707031 186.492188 L 101.308594 218.875 Z M 76.542969 188.746094 " clip-rule="nonzero"/></clipPath><clipPath id="c6943bc032"><path d="M 96 174 L 127 174 L 127 209 L 96 209 Z M 96 174 " clip-rule="nonzero"/></clipPath><clipPath id="08e04d0d71"><path d="M 76.542969 188.746094 L 115.941406 156.363281 L 140.707031 186.492188 L 101.308594 218.875 Z M 76.542969 188.746094 " clip-rule="nonzero"/></clipPath><clipPath id="236e8900e6"><path d="M 76.542969 188.746094 L 115.941406 156.363281 L 140.707031 186.492188 L 101.308594 218.875 Z M 76.542969 188.746094 " clip-rule="nonzero"/></clipPath><clipPath id="80d17a524c"><path d="M 89 178 L 114 178 L 114 207 L 89 207 Z M 89 178 " clip-rule="nonzero"/></clipPath><clipPath id="95362a5d22"><path d="M 76.542969 188.746094 L 115.941406 156.363281 L 140.707031 186.492188 L 101.308594 218.875 Z M 76.542969 188.746094 " clip-rule="nonzero"/></clipPath><clipPath id="020b08f04f"><path d="M 76.542969 188.746094 L 115.941406 156.363281 L 140.707031 186.492188 L 101.308594 218.875 Z M 76.542969 188.746094 " clip-rule="nonzero"/></clipPath><clipPath id="7c8cd23186"><path d="M 105 158 L 124 158 L 124 180 L 105 180 Z M 105 158 " clip-rule="nonzero"/></clipPath><clipPath id="bef58f2719"><path d="M 76.542969 188.746094 L 115.941406 156.363281 L 140.707031 186.492188 L 101.308594 218.875 Z M 76.542969 188.746094 " clip-rule="nonzero"/></clipPath><clipPath id="55ff545509"><path d="M 76.542969 188.746094 L 115.941406 156.363281 L 140.707031 186.492188 L 101.308594 218.875 Z M 76.542969 188.746094 " clip-rule="nonzero"/></clipPath></defs><g fill="#000000" fill-opacity="1"><g transform="translate(39.879936, 200.705049)"><g><path d="M 27.234375 -15.609375 L 27.234375 -9.5625 C 26.515625 -6.25 24.9375 -3.742188 22.5 -2.046875 C 20.070312 -0.347656 17.359375 0.5 14.359375 0.5 C 10.597656 0.5 7.394531 -0.90625 4.75 -3.71875 C 2.101562 -6.53125 0.78125 -9.929688 0.78125 -13.921875 C 0.78125 -17.972656 2.070312 -21.394531 4.65625 -24.1875 C 7.25 -26.988281 10.484375 -28.390625 14.359375 -28.390625 C 18.890625 -28.390625 22.472656 -26.800781 25.109375 -23.625 L 20.953125 -19.0625 C 19.460938 -21.445312 17.390625 -22.640625 14.734375 -22.640625 C 12.773438 -22.640625 11.101562 -21.789062 9.71875 -20.09375 C 8.332031 -18.394531 7.640625 -16.335938 7.640625 -13.921875 C 7.640625 -11.554688 8.332031 -9.535156 9.71875 -7.859375 C 11.101562 -6.179688 12.773438 -5.34375 14.734375 -5.34375 C 16.359375 -5.34375 17.769531 -5.832031 18.96875 -6.8125 C 20.175781 -7.789062 20.78125 -9.09375 20.78125 -10.71875 L 14.359375 -10.71875 L 14.359375 -15.609375 Z M 27.234375 -15.609375 "/></g></g></g><g fill="#000000" fill-opacity="1"><g transform="translate(67.895387, 200.705049)"><g><path d="M 8.375 -27.875 L 8.375 -5.578125 L 17.984375 -5.578125 L 17.984375 0 L 2.03125 0 L 2.03125 -27.875 Z M 8.375 -27.875 "/></g></g></g><g clip-path="url(#8db734f224)"><g clip-path="url(#74c38d1982)"><g clip-path="url(#74a7a91f6d)"><path fill="#38b6ff" d="M 94.859375 200.417969 C 94.582031 200.125 94.3125 199.824219 94.050781 199.507812 C 93 198.226562 92.175781 196.835938 91.570312 195.378906 C 93.175781 196.34375 95.691406 195.9375 97.445312 195.65625 C 97.957031 195.574219 98.46875 195.472656 98.984375 195.417969 C 99.480469 194.730469 99.957031 194.035156 100.414062 193.328125 C 100.019531 193.09375 99.605469 192.707031 99.488281 192.417969 C 99.191406 191.707031 99.847656 191.417969 100.308594 190.964844 C 101.824219 189.484375 99.164062 187.269531 99.085938 185.695312 C 99.03125 184.542969 99.75 183.230469 99.023438 182.335938 C 98.417969 181.59375 97.171875 181.691406 96.550781 180.964844 C 96.488281 180.890625 96.433594 180.8125 96.386719 180.726562 C 96.199219 180.410156 96.082031 180.039062 95.828125 179.773438 C 95.316406 179.234375 94.453125 179.269531 93.671875 179.207031 C 94.425781 178.222656 95.300781 177.300781 96.304688 176.476562 C 97.601562 175.410156 99.019531 174.574219 100.5 173.96875 C 100.921875 175.15625 102.933594 176.117188 104.164062 175.964844 C 105.089844 175.851562 106.070312 175.300781 106.890625 175.742188 C 107.035156 175.820312 107.152344 175.921875 107.253906 176.035156 C 107.570312 174.160156 107.765625 172.265625 107.832031 170.363281 C 107.839844 170.085938 107.847656 169.890625 107.871094 169.738281 C 103.148438 169.449219 98.308594 170.875 94.363281 174.117188 C 86.078125 180.925781 84.882812 193.164062 91.691406 201.449219 C 92.019531 201.847656 92.359375 202.230469 92.710938 202.59375 C 93.453125 201.882812 94.167969 201.160156 94.859375 200.417969 Z M 94.859375 200.417969 " fill-opacity="1" fill-rule="nonzero"/></g></g></g><g clip-path="url(#c6943bc032)"><g clip-path="url(#08e04d0d71)"><g clip-path="url(#236e8900e6)"><path fill="#38b6ff" d="M 118.96875 177.363281 C 118.910156 177.515625 118.871094 177.625 118.851562 177.675781 C 117.625 181.203125 116.011719 184.617188 114.046875 187.851562 C 114.132812 187.988281 114.234375 188.113281 114.359375 188.214844 C 115.054688 188.8125 116.230469 188.84375 116.953125 188.285156 C 117.289062 188.027344 117.59375 187.648438 118.015625 187.648438 C 118.273438 187.648438 118.503906 187.792969 118.710938 187.941406 C 120.078125 188.90625 121.253906 190.144531 122.144531 191.558594 C 122.324219 191.84375 122.496094 192.140625 122.726562 192.386719 C 122.003906 195.9375 120.101562 199.273438 117.085938 201.757812 C 116.480469 202.253906 115.851562 202.699219 115.203125 203.09375 C 115.121094 202.980469 115.042969 202.871094 114.972656 202.753906 C 114.621094 202.160156 114.492188 201.4375 114.617188 200.757812 C 114.699219 200.308594 114.875 199.792969 114.59375 199.433594 C 114.289062 199.046875 113.703125 199.132812 113.214844 199.078125 C 112.261719 198.972656 111.507812 198.179688 111.492188 197.246094 C 111.472656 196.039062 111.394531 194.816406 111.316406 193.601562 C 111.289062 193.1875 111.242188 192.730469 110.9375 192.453125 C 110.933594 192.449219 110.933594 192.449219 110.929688 192.445312 C 109.035156 194.957031 106.917969 197.320312 104.601562 199.503906 C 104.046875 200.023438 103.488281 200.527344 102.925781 201.019531 C 103.308594 201.597656 103.800781 202.109375 104.351562 202.464844 C 105.535156 203.230469 107.085938 203.292969 108.417969 202.828125 C 108.765625 202.703125 109.113281 202.542969 109.484375 202.535156 C 109.855469 202.523438 110.265625 202.707031 110.375 203.0625 C 110.441406 203.273438 110.394531 203.527344 110.535156 203.699219 C 110.628906 203.816406 110.789062 203.863281 110.933594 203.902344 C 111.203125 203.972656 111.789062 204.199219 112.457031 204.433594 C 108.214844 206.03125 103.492188 205.777344 99.460938 203.792969 C 99.050781 204.097656 98.636719 204.394531 98.21875 204.679688 L 98.15625 204.722656 C 97.734375 205.015625 97.210938 205.371094 96.628906 205.726562 C 103.480469 209.878906 112.484375 209.492188 119.023438 204.117188 C 127.308594 197.308594 128.503906 185.070312 121.695312 176.785156 C 121.113281 176.078125 120.492188 175.425781 119.835938 174.820312 C 119.707031 175.359375 119.425781 176.148438 118.96875 177.363281 Z M 118.96875 177.363281 " fill-opacity="1" fill-rule="nonzero"/></g></g></g><g clip-path="url(#80d17a524c)"><g clip-path="url(#95362a5d22)"><g clip-path="url(#020b08f04f)"><path fill="#38b6ff" d="M 107.339844 179.148438 C 107.125 179.214844 105.949219 190 95.167969 201.226562 C 94.53125 201.886719 92.582031 203.886719 91.914062 204.257812 C 91.15625 204.679688 90.273438 204.730469 89.964844 203.027344 C 89.960938 203.921875 89.78125 204.792969 90.40625 205.570312 C 92.269531 207.878906 96.027344 205.261719 97.785156 204.050781 C 100.011719 202.519531 102.789062 199.910156 104.554688 197.863281 C 108.851562 192.875 110.144531 189.171875 113.679688 181.207031 C 113.679688 181.207031 112.234375 179.449219 111.140625 178.121094 C 111.132812 178.117188 109.519531 178.46875 107.339844 179.148438 Z M 107.339844 179.148438 " fill-opacity="1" fill-rule="nonzero"/></g></g></g><g clip-path="url(#7c8cd23186)"><g clip-path="url(#bef58f2719)"><g clip-path="url(#55ff545509)"><path fill="#38b6ff" d="M 117.699219 159.035156 C 116.730469 158.710938 115.257812 160.476562 114.9375 161.445312 L 114.585938 162.496094 L 105.988281 166.664062 C 105.730469 166.773438 105.527344 167.007812 105.429688 167.296875 C 105.222656 167.90625 105.570312 168.515625 106.125 168.527344 L 112.324219 168.40625 L 111.21875 174.996094 L 108.742188 175.734375 C 108.453125 175.820312 108.222656 176.042969 108.128906 176.332031 L 107.8125 177.269531 C 107.738281 177.488281 107.929688 177.707031 108.160156 177.660156 L 111.636719 177 L 113.957031 179.597656 C 114.113281 179.769531 114.398438 179.710938 114.46875 179.492188 L 114.78125 178.554688 C 114.878906 178.269531 114.828125 177.953125 114.648438 177.707031 L 113.238281 175.796875 L 116.035156 169.890625 L 121.691406 174.363281 C 122.144531 174.691406 122.785156 174.410156 122.988281 173.804688 C 123.085938 173.515625 123.0625 173.203125 122.921875 172.960938 L 118.109375 163.671875 L 118.460938 162.621094 C 118.78125 161.652344 118.667969 159.359375 117.699219 159.035156 Z M 117.925781 162.167969 C 117.097656 160.875 115.546875 161.367188 115.546875 161.367188 C 115.546875 161.367188 116.28125 159.832031 117.277344 160.167969 C 118.328125 160.519531 117.925781 162.167969 117.925781 162.167969 Z M 117.925781 162.167969 " fill-opacity="1" fill-rule="nonzero"/></g></g></g><g fill="#000000" fill-opacity="1"><g transform="translate(128.13505, 200.705049)"><g><path d="M 2.03125 -27.875 L 10.6875 -27.875 C 13.289062 -27.875 15.367188 -27.316406 16.921875 -26.203125 C 18.484375 -25.085938 19.265625 -23.28125 19.265625 -20.78125 C 19.265625 -17.988281 18.101562 -15.992188 15.78125 -14.796875 C 19.75 -14.097656 21.734375 -11.753906 21.734375 -7.765625 C 21.734375 -5.429688 20.921875 -3.550781 19.296875 -2.125 C 17.671875 -0.707031 15.441406 0 12.609375 0 L 2.03125 0 Z M 8.375 -16.96875 L 8.890625 -16.96875 C 10.304688 -16.96875 11.363281 -17.210938 12.0625 -17.703125 C 12.757812 -18.203125 13.109375 -19.015625 13.109375 -20.140625 C 13.109375 -22.035156 11.703125 -22.984375 8.890625 -22.984375 L 8.375 -22.984375 Z M 8.375 -4.90625 L 10.375 -4.90625 C 13.488281 -4.90625 15.046875 -5.941406 15.046875 -8.015625 C 15.046875 -9.253906 14.65625 -10.140625 13.875 -10.671875 C 13.09375 -11.210938 11.925781 -11.484375 10.375 -11.484375 L 8.375 -11.484375 Z M 8.375 -4.90625 "/></g></g></g><g fill="#000000" fill-opacity="1"><g transform="translate(150.642034, 200.705049)"><g><path d="M 17.984375 -27.875 L 17.984375 -22.3125 L 8.375 -22.3125 L 8.375 -16.765625 L 17.578125 -16.765625 L 17.578125 -11.1875 L 8.375 -11.1875 L 8.375 -5.578125 L 17.984375 -5.578125 L 17.984375 0 L 2.03125 0 L 2.03125 -27.875 Z M 17.984375 -27.875 "/></g></g></g><g fill="#000000" fill-opacity="1"><g transform="translate(170.242714, 200.705049)"><g><path d="M 10.75 0 L -0.953125 -27.875 L 6.21875 -27.875 L 13.25 -9.5625 L 20.28125 -27.875 L 27.4375 -27.875 L 15.75 0 Z M 10.75 0 "/></g></g></g><g fill="#000000" fill-opacity="1"><g transform="translate(196.737425, 200.705049)"><g><path d="M 17.984375 -27.875 L 17.984375 -22.3125 L 8.375 -22.3125 L 8.375 -16.765625 L 17.578125 -16.765625 L 17.578125 -11.1875 L 8.375 -11.1875 L 8.375 -5.578125 L 17.984375 -5.578125 L 17.984375 0 L 2.03125 0 L 2.03125 -27.875 Z M 17.984375 -27.875 "/></g></g></g><g fill="#000000" fill-opacity="1"><g transform="translate(216.338105, 200.705049)"><g><path d="M 8.375 -17.296875 L 8.375 0 L 2.03125 0 L 2.03125 -27.875 L 8.375 -27.875 L 19.46875 -10.578125 L 19.53125 -10.578125 L 19.53125 -27.875 L 25.890625 -27.875 L 25.890625 0 L 19.53125 0 L 8.453125 -17.296875 Z M 8.375 -17.296875 "/></g></g></g><g fill="#000000" fill-opacity="1"><g transform="translate(244.252179, 200.705049)"><g><path d="M 0.265625 -22.3125 L 0.265625 -27.875 L 19.875 -27.875 L 19.875 -22.3125 L 13.25 -22.3125 L 13.25 0 L 6.890625 0 L 6.890625 -22.3125 Z M 0.265625 -22.3125 "/></g></g></g><g fill="#000000" fill-opacity="1"><g transform="translate(264.393564, 200.705049)"><g><path d="M 23.453125 -27.875 L 23.453125 -9.90625 C 23.453125 -6.476562 22.523438 -3.882812 20.671875 -2.125 C 18.828125 -0.375 16.125 0.5 12.5625 0.5 C 9.007812 0.5 6.304688 -0.375 4.453125 -2.125 C 2.609375 -3.882812 1.6875 -6.476562 1.6875 -9.90625 L 1.6875 -27.875 L 8.046875 -27.875 L 8.046875 -11.765625 C 8.046875 -9.503906 8.398438 -7.9375 9.109375 -7.0625 C 9.816406 -6.1875 10.96875 -5.75 12.5625 -5.75 C 14.164062 -5.75 15.320312 -6.1875 16.03125 -7.0625 C 16.738281 -7.9375 17.09375 -9.503906 17.09375 -11.765625 L 17.09375 -27.875 Z M 23.453125 -27.875 "/></g></g></g><g fill="#000000" fill-opacity="1"><g transform="translate(289.536511, 200.705049)"><g><path d="M 2.03125 -27.875 L 12 -27.875 C 14.675781 -27.875 16.859375 -27.160156 18.546875 -25.734375 C 20.242188 -24.304688 21.09375 -22.265625 21.09375 -19.609375 C 21.09375 -17.554688 20.578125 -15.835938 19.546875 -14.453125 C 18.523438 -13.066406 17.132812 -12.09375 15.375 -11.53125 L 24.96875 0 L 16.890625 0 L 8.375 -11.015625 L 8.375 0 L 2.03125 0 Z M 8.375 -15.515625 L 9.125 -15.515625 C 9.707031 -15.515625 10.203125 -15.523438 10.609375 -15.546875 C 11.015625 -15.566406 11.476562 -15.644531 12 -15.78125 C 12.519531 -15.914062 12.9375 -16.109375 13.25 -16.359375 C 13.5625 -16.609375 13.828125 -16.96875 14.046875 -17.4375 C 14.273438 -17.914062 14.390625 -18.488281 14.390625 -19.15625 C 14.390625 -19.832031 14.273438 -20.40625 14.046875 -20.875 C 13.828125 -21.351562 13.5625 -21.71875 13.25 -21.96875 C 12.9375 -22.21875 12.519531 -22.410156 12 -22.546875 C 11.476562 -22.679688 11.015625 -22.757812 10.609375 -22.78125 C 10.203125 -22.800781 9.707031 -22.8125 9.125 -22.8125 L 8.375 -22.8125 Z M 8.375 -15.515625 "/></g></g></g><g fill="#000000" fill-opacity="1"><g transform="translate(313.733211, 200.705049)"><g><path d="M 17.984375 -27.875 L 17.984375 -22.3125 L 8.375 -22.3125 L 8.375 -16.765625 L 17.578125 -16.765625 L 17.578125 -11.1875 L 8.375 -11.1875 L 8.375 -5.578125 L 17.984375 -5.578125 L 17.984375 0 L 2.03125 0 L 2.03125 -27.875 Z M 17.984375 -27.875 "/></g></g></g></svg>